<?xml version="1.0" encoding="utf-8"?>
<!-- Generator: Adobe Illustrator 19.2.1, SVG Export Plug-In . SVG Version: 6.00 Build 0)  -->
<svg version="1.1" id="layer" xmlns="http://www.w3.org/2000/svg" xmlns:xlink="http://www.w3.org/1999/xlink" x="0px" y="0px"
	 viewBox="0 0 652 652" style="enable-background:new 0 0 652 652;" xml:space="preserve">
<style type="text/css">
	.st0{fill:none;stroke:#000000;stroke-width:0.4739;stroke-linecap:round;stroke-linejoin:round;stroke-miterlimit:10;}
	.st1{fill:none;stroke:#333333;stroke-width:0.6686;stroke-miterlimit:10;}
	.st2{fill:#333333;}
	.st3{fill:none;stroke:#333333;stroke-width:0.4739;stroke-linecap:round;stroke-linejoin:round;stroke-miterlimit:10;}
	.st4{fill:none;stroke:#333333;stroke-width:0.6686;stroke-linecap:round;stroke-linejoin:round;stroke-miterlimit:10;}
	.st5{fill:none;stroke:#000000;stroke-width:0.6686;stroke-linecap:round;stroke-linejoin:round;stroke-miterlimit:10;}
	.st6{fill:#333333;stroke:#333333;stroke-width:3.3432;stroke-linecap:round;stroke-linejoin:round;stroke-miterlimit:10;}
	.st7{fill:none;stroke:#333333;stroke-width:3.3432;stroke-linecap:round;stroke-linejoin:round;stroke-miterlimit:10;}
	.st8{fill:none;stroke:#333333;stroke-width:1.3373;stroke-linecap:round;stroke-linejoin:round;stroke-miterlimit:10;}
</style>
<g id="LWPOLYLINE_4_">
	<polyline class="st0" points="108.1,329.3 107.7,329.3 107,329.5 106.3,329.6 105.6,329.7 104.3,329.7 102.3,329.7 	"/>
</g>
<g id="LWPOLYLINE_5_">
	<polygon class="st1" points="82.5,356.3 81.8,356.2 81.1,356.1 80.9,356.1 80.7,356.1 80.5,356.2 80.4,356.2 80.3,356.3 
		80.2,356.5 80.2,356.6 80.2,356.8 80.2,356.9 80.2,357 80.3,357.1 80.1,357.2 80,357.2 79.8,357.2 79.5,357.3 79.3,357.5 
		79.1,357.6 78.8,357.7 78.5,357.9 78.2,358.3 77.8,358.6 77.7,358.9 77.6,359.1 77.6,359.2 77.6,359.3 77.6,359.4 77.6,359.6 
		77.6,359.8 77.7,360.2 77.9,360.4 78.1,360.6 78.2,360.9 78.4,361.2 78.7,361.4 79,361.7 79.4,362 79.6,362.1 80.1,362.3 
		80.4,362.3 80.7,362.3 81,362.2 81.3,362 81.6,361.9 82,361.7 82.2,361.6 82.5,361.5 82.9,361.4 83.4,361.3 83.9,361.3 84.3,361.3 
		84.5,361.3 84.1,360.1 83.6,359.2 83.2,358.3 82.9,357.5 82.8,356.9 82.6,356.4 	"/>
</g>
<g id="LWPOLYLINE_6_">
	<polygon class="st2" points="112.8,328.2 112.4,328.2 112,328.3 111.4,328.3 110.8,328.5 110.3,328.7 109.7,328.9 109.3,329 
		109,329.1 108.8,329.2 108.7,329.2 108.5,329.2 108.4,329 108.3,328.9 108.2,328.6 108.2,328.2 108.2,327.6 108.2,327.1 
		108.3,326.3 108.7,325.4 109.4,322.9 109.6,321.7 109.6,320.9 109.5,320.2 109.4,319.8 109.2,319.2 109,318.9 108.7,318.7 
		108.4,318.6 108.1,318.4 107.8,318.3 107.5,318.2 107.1,318.2 106.7,318.3 106.1,318.3 105.7,318.3 105.3,318.4 104.9,318.4 
		104.3,318.3 103.9,318.3 103.5,318.3 103.1,318.4 102.9,318.5 102.6,318.6 102.5,318.6 102.3,318.7 102.2,318.9 102,319 
		101.9,319.2 101.8,319.4 101.6,319.8 101.5,320.1 101.4,320.6 101.4,320.9 101.4,321.9 101.5,322.6 101.7,323.4 101.9,324.3 
		102.1,324.9 102.4,325.6 102.6,326.3 102.7,327.1 102.7,328 102.6,328.6 102.2,329.3 101.8,329.7 101.3,329.7 100.9,329.6 
		100.4,329.6 99.9,329.7 99,329.7 98.6,329.7 97.8,329.9 97,330.1 97.6,329.6 98.2,328.7 98.6,328.1 99,327 99.4,325.8 99.7,324.3 
		99.9,322.9 99.9,322 99.9,320.9 100.1,319.6 100.6,318.2 100.9,317.4 102,317.3 103.3,317.2 104.4,317.1 105.3,317.1 107.2,317.1 
		109.2,317.2 110.6,317.4 110.7,317.9 111,319.8 111.4,321.6 111.6,322.6 111.7,323.1 111.7,324.1 111.7,324.4 111.6,324.9 
		111.6,325.3 111.5,325.6 111.5,326 111.7,326.5 111.8,327 112,327.3 112.4,327.7 	"/>
</g>
<g id="LWPOLYLINE_7_">
	<polyline class="st3" points="108.1,329.3 108,329 107.9,328.7 107.8,328.2 107.8,327.6 107.9,327 108,326.2 108.3,325.3 
		109,322.8 109.2,321.7 109.2,320.9 109.2,320.3 109,319.9 108.8,319.4 108.7,319.2 108.5,319 108.3,318.9 108,318.7 107.7,318.7 
		107.4,318.6 107.1,318.6 106.7,318.6 106.1,318.7 105.7,318.7 105.3,318.7 104.9,318.7 104.3,318.7 103.9,318.7 103.6,318.7 
		103.2,318.7 103,318.8 102.8,318.9 102.6,318.9 102.6,319 102.4,319.2 102.3,319.2 102.2,319.4 102.1,319.6 101.9,319.9 
		101.9,320.2 101.8,320.6 101.7,320.9 101.8,321.8 101.9,322.5 102,323.3 102.3,324.2 102.5,324.8 102.7,325.6 103,326.3 103.1,327 
		103,328 103,328.7 102.4,329.6 102.3,329.7 	"/>
</g>
<g id="LWPOLYLINE_8_">
	<polyline class="st4" points="103,326.6 103.3,326.8 103.5,327 103.6,327.1 103.8,327.2 104.1,327.3 104.3,327.3 104.8,327.4 
		105.3,327.4 105.7,327.3 106.2,327.2 106.6,327 107.1,326.6 107.7,326.3 	"/>
</g>
<g id="LWPOLYLINE_9_">
	<polygon class="st2" points="100.6,316.2 99.9,316.1 99.3,315.7 98.9,315.2 98.6,314.5 98.6,313.7 98.7,313.2 98.9,312.7 
		99.3,312.3 99.7,312 100.2,311.8 100.6,311.8 101.3,311.7 102,311.5 102.6,311.2 103,310.9 103.5,310.5 103.8,310.2 104.1,309.7 
		104.3,309.5 104.7,309.2 105,309.1 105.6,308.9 106.2,309 106.8,309.2 107.3,309.5 107.5,309.8 107.8,310.2 107.8,310.3 
		108.6,310.9 109.1,311.3 109.5,311.5 110,311.6 110.5,311.8 111.2,311.8 111.6,311.9 112.2,312.3 112.6,312.6 112.9,313.2 
		113,313.6 113,314.1 112.9,314.7 112.7,315.2 112.4,315.5 112,315.8 111.7,316 111.4,316.2 111,316.2 111,316.2 111,316.4 
		111,316.6 110.9,316.9 110.7,317.2 110.6,317.2 109.6,317.1 108.3,316.9 107.3,316.9 105.6,316.9 104.1,316.9 102.6,317 
		101.5,317.1 100.9,317.2 100.8,317.1 100.7,317 100.6,316.9 100.6,316.6 	"/>
</g>
<g id="LWPOLYLINE_10_">
	<path class="st5" d="M137.1,306.5v18.3l0.6-1.4l0.6-0.9l0.6-0.7l0.7-0.5l0.9-0.5l0.8-0.3l0.6-0.1l0.6-0.1l1.9,1.2l-1.9,1.2
		l-0.9,0.2L141,323l-0.7,0.7l-0.5,0.8l-0.2,0.5l-0.2,0.6l-0.1,0.5l-0.1,0.6h-7.7v-2c0.1-4.9-3.9-8.9-8.8-8.9c-1.8,0-3.5,0.5-4.9,1.5
		c-0.5-7.1-6.6-12.6-13.6-12.1c-6.6,0.4-11.7,5.6-12.1,12.1c-4.1-2.7-9.6-1.5-12.3,2.5c-0.9,1.5-1.5,3.2-1.5,4.9v2h-7.7l-0.1-0.6
		l-0.1-0.5l-0.2-0.6l-0.2-0.5l-0.5-0.8l-0.7-0.7l-0.7-0.4l-0.9-0.2l-1.9-1.2l1.9-1.2l0.6,0.1l0.6,0.1l0.8,0.3l0.9,0.5l0.7,0.5
		l0.6,0.7l0.6,0.9l0.6,1.4v-18.3l1.2-3.6l1.2,3.6v15.2c1.6-6.4,7.9-10.5,14.3-9.5c1.7-4.5,5.2-8.1,9.8-9.8
		c8.6-3.2,18.3,1.2,21.6,9.8c6.6-1.1,12.8,3,14.3,9.5v-15.2l1.2-3.6L137.1,306.5z"/>
</g>
<g id="LWPOLYLINE_11_">
	<polygon class="st5" points="132.5,334.3 137.6,334.3 139,328.3 130.9,328.3 	"/>
</g>
<g id="LWPOLYLINE_12_">
	<polygon class="st5" points="71.8,334.3 76.9,334.3 78.4,328.3 70.3,328.3 	"/>
</g>
<g id="LWPOLYLINE_13_">
	<polygon class="st5" points="138.2,366 137.9,350.5 137.3,335.1 132.6,335.1 132.1,350.5 131.8,365.9 131.1,393.8 138.8,393.8 	"/>
</g>
<g id="LWPOLYLINE_14_">
	<polygon class="st5" points="140.3,396.9 140.3,394.6 129.3,394.6 129.3,402.6 131.1,402.6 136.3,399.6 	"/>
</g>
<g id="LWPOLYLINE_15_">
	<polygon class="st5" points="69,396.9 69,394.6 80,394.6 80,402.6 78.2,402.6 73.4,400.1 	"/>
</g>
<g id="LWPOLYLINE_16_">
	<polygon class="st5" points="71,366 71.4,350.5 71.9,335.1 76.7,335.1 77.1,350.5 77.5,365.9 78.2,393.8 70.4,393.8 	"/>
</g>
<polygon class="st2" points="95.2,242.9 22.2,242.9 22.2,261.4 95.2,261.4 95.2,278.6 113.7,278.6 113.7,261.4 186.7,261.4 
	186.7,242.9 113.7,242.9 113.7,225.5 95.2,225.5 "/>
<path class="st6" d="M186.7,279.8v-1.2H22.2v1.2v3.3v5.1l0.1,6.4l0.2,7.2l0.2,7.7l0.3,7.8l0.6,7.4l0.8,6.7l1,5.9l1.2,5.4l1.3,4.9
	l1.5,4.5l1.5,4.2l1.7,3.9l1.8,3.8l1.9,3.8l1.9,3.8l2.1,3.8l2.2,3.8l2.5,3.9l2.8,3.9l3.1,3.9l3.5,4l3.9,4.1l4.4,4.2l4.9,4.2l5.6,4.3
	l6.4,4.3l7.3,4.3l8.3,4.3l9.4,4.2l9.4-4.2l8.3-4.3l7.3-4.3l6.4-4.3l5.6-4.3l4.9-4.2l4.4-4.2l3.9-4.1l3.5-4l3.1-3.9l2.8-3.9l2.5-3.9
	l2.2-3.8l2.1-3.8l1.9-3.8l1.9-3.8l1.8-3.8l1.7-3.9l1.5-4.2l1.5-4.5l1.3-4.9l1.2-5.4l1-5.9l0.8-6.7l0.6-7.4l0.4-7.8l0.2-7.7l0.2-7.2
	l0.1-6.4v-5.1L186.7,279.8z M104.5,409.6c-34.4,0-62.3-27.9-62.3-62.3c0-34.4,27.9-62.3,62.3-62.3s62.3,27.9,62.3,62.3
	C166.8,381.8,138.9,409.6,104.5,409.6z"/>
<path class="st2" d="M92.8,354.5l-0.6,6l-0.5,6.1l-1,8.9l-0.9,5.7l-0.8,3.8l-0.9,3.8l-1.1,3.8l-0.6,2.9l-0.6,3.5l-0.3,2.5l-0.4,2.5
	l40.5,0.3l-1.9-7.3l-0.8-3.1l-0.5-2.5l-0.7-3.2l-0.4-2.7l-0.4-6.6l-0.2-6.2l-0.1-5.1l-0.1-3.3V363l-0.4,0.3l-0.9,1l-0.8,0.8
	l-1.1,1.1l-1.2-12.2l0.5-1.4l1.2,11.9l1.2-1.4l1.8-2.2l1-1.2l1.1-1.5l0.5-1.2l0.8-2.1l0.5-1.5l0.3-1.4v-1.3l-0.3-2.8l-0.8-2.2
	l-1.6-3.9l-1.6-3.4l-0.4-0.5l-2.2-2.9l-2.3-2.6l-0.5,0.2l-7.5,1.9L105,335l-1.4,0.2l-1.8,0.1l-2.6-0.2l-1.9-0.1H96h-1.4l-0.8,0.2
	l-0.6,0.2l-0.4,0.2l-0.5,0.3l-0.3,0.3l-0.4,0.5l-0.4,0.6l-0.3,0.5l-0.5,0.9l-0.5,1.1l-0.7,2.1l-0.6,2l-0.8,2.5l-0.5,0.9l-0.9,1.4
	l-1.1,1.5l-0.8,1.2l-0.8,1.2l-0.5,1l-0.5,1.2l-0.2,0.5v0.5v0.2v0.2l0.1,0.3l0.1,0.4l0.2,0.5l0.2,0.6l0.2,0.3l0.2,0.5l0.3,0.6
	l0.3,0.7l0.3,0.6l0.2,0.4l0.2,0.5v0.5l0.2,0.8l0.1,0.6l0.2,0.7l0.2,0.9l0.1,0.2l0.2,0.3l0.2,0.2l0.2,0.2l0.2,0.1h0.3h0.2l0.3-0.1
	l0.2-0.1l0.2-0.2l0.1-0.1l0.3-0.3l0.4-0.5l0.4-0.6l0.5-0.8l0.3-0.6l0.8-1.9l0.6-1.7l0.7-2.2l0.3-2.9l0.5-4l0.4-2.4l0.8-4.5l0.7,0.3
	l-0.8,5.1L92.8,354.5z M111.5,344.4l6.7,1.9l-2.2,7.4l-0.8-0.1h-1.3h-0.8h-0.5l-0.3-0.1l-0.2-0.1l-0.3-0.1l-0.2-0.1h-0.2l-0.3,0.1
	l-0.2,0.3v0.3l0.1,0.2l0.1,0.2l0.1,0.2l0.2,0.2l0.2,0.2l0.6,0.4l0,0H112l-0.5,0.1h-0.6h-0.8l-0.7,0.1l-0.7,0.2l-0.8-0.2L111.5,344.4
	z M108,356.7l0.1-0.2l0.1-0.2l0.2-0.2l0.2-0.1l0.4-0.2l0.5-0.1l0.4-0.1l0.5-0.1h0.8l0.6-0.1l0.5-0.1l0.2-0.1l0.2-0.1h0.1l0.1-0.1
	v-0.1v-0.1l-0.1-0.1l-0.1-0.1l-0.2-0.2l-0.6-0.4l-0.2-0.2l-0.2-0.2l-0.1-0.1l-0.1-0.2l-0.1-0.2v-0.2l0.1-0.1h0.1h0.2h0.2l0.3,0.1
	l0.3,0.1l0.4,0.1h0.5l0.7-0.1h1.3l0.3,0.1l0.3,0.1l0.3,3.8l-0.3,0.2l-0.3,0.2l-0.3,0.2l-0.5,0.2l-0.5,0.2l-0.5,0.2l-0.6,0.2
	l-0.6,0.2l-0.8,0.2l-0.5,0.1h-0.6l-0.6-0.1l-0.7-0.2l-0.5-0.3l-0.3-0.3l-0.3-0.5l-0.1-0.4l-0.1-0.5L108,356.7L108,356.7z"/>
<rect x="22.2" y="225.5" class="st7" width="164.4" height="53"/>
<g id="LWPOLYLINE_3_">
	<polygon class="st8" points="115.8,332.2 115.5,331.7 115.1,331 114.4,330 113.7,329.1 113.4,328.8 113.3,328.7 113.1,328.6 
		113,328.5 112.8,328.4 112.7,328.4 112.4,328.4 112.3,328.4 112,328.4 111.3,328.6 110.7,328.7 110.3,328.9 110,329 109.8,329 
		109.6,329.2 109,329.4 108.3,329.6 107.7,329.7 107,329.8 106.3,329.9 105.6,330 104.3,330 101.6,330 99.6,330 99,330 98.4,330.1 
		98,330.2 97.7,330.3 97.5,330.3 97.2,330.4 96.9,330.5 96.7,330.6 96.5,330.7 96.3,330.9 96,331.1 95.5,331.7 94.9,332.4 94.5,333 
		93.9,333.8 93.5,334.4 93.2,335 92.5,335.8 92.9,335.5 93.3,335.3 93.8,335.1 94.2,335 94.7,334.9 95.4,334.8 96.2,334.8 
		97.2,334.8 97.8,334.8 101.9,334.9 103.7,334.9 108,334 	"/>
</g>
<g>
	<path class="st2" d="M265.8,278.9c-11.8,0-17.7-6.9-17.7-16.7v-32.2h9.2v31.8c0,6.7,2.7,10,8.6,10c5.9,0,8.7-3.3,8.7-10v-31.8h9.2
		v32.2C283.7,271.8,277.5,278.9,265.8,278.9z"/>
	<path class="st2" d="M317.8,277.8L301.4,239c0.5,4.2,1.2,10.3,1.2,19.2v19.6h-8.3v-47.9h11.6l16.7,38.8c-0.4-2.6-1.2-9.6-1.2-16.3
		v-22.5h8.3v47.9L317.8,277.8L317.8,277.8L317.8,277.8z"/>
	<path class="st2" d="M340.9,277.8v-47.9h9.2v47.9L340.9,277.8L340.9,277.8z"/>
	<path class="st2" d="M370,277.8l-14.6-47.9h9.9l10.4,39.9l10.1-39.9h9.3l-14.2,47.9L370,277.8L370,277.8z"/>
	<path class="st2" d="M409.7,236.7v13.4h15.4v6.8h-15.4V271h19v6.9h-28.1v-47.9h27.8l-1,6.8C427.4,236.7,409.7,236.7,409.7,236.7z"
		/>
	<path class="st2" d="M446.4,258.6v19.2h-9.2v-47.9h14.3c12.6,0,19,4.5,19,14.1c0,6.6-3.2,10.4-9.7,12.9l12.6,20.9h-10.6l-10.6-19.2
		L446.4,258.6L446.4,258.6L446.4,258.6z M452.1,252c5.7,0,8.9-2.3,8.9-8c0-5.2-3-7.4-9.6-7.4h-4.9v15.5L452.1,252L452.1,252
		L452.1,252z"/>
	<path class="st2" d="M509.2,234.8l-4.6,5.2c-3.3-2.9-6.6-4.2-10.6-4.2c-4.3,0-7.4,1.9-7.4,5.7c0,3.5,1.9,5,9.9,7.5
		c8.4,2.6,14.2,6.1,14.2,15.1c0,8.6-6.7,14.7-18.2,14.7c-7.6,0-13.3-2.7-17.3-6.6l4.9-5.4c3.3,3.1,7.2,4.9,12.2,4.9
		c5.2,0,8.8-2.5,8.8-7.2c0-4-2-5.9-9.5-8.1c-10-3.1-14.4-7.2-14.4-14.4c0-7.9,6.9-13.3,16.3-13.3
		C500.5,228.8,505.1,230.9,509.2,234.8z"/>
	<path class="st2" d="M518.5,277.8v-47.9h9.2v47.9L518.5,277.8L518.5,277.8z"/>
	<path class="st2" d="M556.3,237.2v40.6H547v-40.6h-12.9v-7.2h35.6l-1,7.2C568.8,237.2,556.3,237.2,556.3,237.2z"/>
	<path class="st2" d="M578.1,266.7l-3,11.1h-9.5l14.9-47.9h11.3l14.9,47.9H597l-3-11.1H578.1z M576.5,219.8l3.5-6.9l14.6,8.1
		l-2.3,4.5L576.5,219.8z M585.9,236.8l-6.1,22.9H592L585.9,236.8z"/>
	<path class="st2" d="M285.1,325.3c0,19.4-11.9,24.2-23.3,24.2h-13v-47.9h11.8C273.1,301.6,285.1,305.5,285.1,325.3z M257.9,342.6
		h4.5c7.2,0,13-3.2,13-17.3c0-14.4-6.2-16.9-13.3-16.9h-4.2L257.9,342.6L257.9,342.6L257.9,342.6z"/>
	<path class="st2" d="M302.9,308.4v13.4h15.4v6.8h-15.4v14.1h19v6.9h-28.1v-47.9h27.8l-1,6.8L302.9,308.4L302.9,308.4z"/>
	<path class="st2" d="M365.1,306.1l-5,5.2c-3.2-2.6-5.9-3.9-10-3.9c-6.8,0-12.6,5.2-12.6,18c0,13.1,3.9,18,11.4,18
		c2.7,0,5.3-0.5,7.6-1.8v-12.5h-7.2l-1-6.8h17.2v23.4c-4.6,2.9-10.3,4.7-16.9,4.7c-13.3,0-20.8-8.6-20.8-25.1c0-16.3,10-25,21.8-25
		C356.5,300.5,361.1,302.7,365.1,306.1z"/>
	<path class="st2" d="M403.1,342l-1.1,7.5h-27.4v-47.9h9.2V342H403.1z"/>
	<path class="st2" d="M409.8,349.5v-47.9h9.2v47.9H409.8z"/>
	<path class="st2" d="M477.3,306.5l-4.6,5.2c-3.3-2.9-6.6-4.2-10.6-4.2c-4.3,0-7.4,1.9-7.4,5.7c0,3.5,1.9,5,9.9,7.5
		c8.4,2.6,14.3,6.1,14.3,15.1c0,8.6-6.7,14.7-18.2,14.7c-7.6,0-13.3-2.7-17.3-6.6l4.9-5.4c3.3,3.1,7.2,4.9,12.2,4.9
		c5.2,0,8.8-2.5,8.8-7.2c0-4-2-5.9-9.5-8.1c-10-3.1-14.4-7.2-14.4-14.4c0-7.9,6.9-13.3,16.3-13.3
		C468.5,300.5,473.1,302.6,477.3,306.5z"/>
	<path class="st2" d="M503.2,308.8v40.6h-9.2v-40.6H481v-7.2h35.6l-1,7.2L503.2,308.8L503.2,308.8z"/>
	<path class="st2" d="M539.6,350.5c-11.8,0-17.7-6.9-17.7-16.7v-32.2h9.2v31.8c0,6.7,2.7,10,8.6,10c5.9,0,8.7-3.3,8.7-10v-31.8h9.2
		v32.2C557.5,343.5,551.3,350.5,539.6,350.5z"/>
	<path class="st2" d="M604.4,325.3c0,19.4-11.9,24.2-23.3,24.2h-13v-47.9h11.8C592.5,301.6,604.4,305.5,604.4,325.3z M577.2,342.6
		h4.5c7.2,0,13-3.2,13-17.3c0-14.4-6.2-16.9-13.3-16.9h-4.2L577.2,342.6L577.2,342.6L577.2,342.6z"/>
	<path class="st2" d="M613,349.5v-47.9h9.2v47.9H613z"/>
	<path class="st2" d="M285.1,396.9c0,19.4-11.9,24.2-23.3,24.2h-13v-47.9h11.8C273.1,373.3,285.1,377.1,285.1,396.9z M257.9,414.3
		h4.5c7.2,0,13-3.2,13-17.3c0-14.4-6.2-16.9-13.3-16.9h-4.2L257.9,414.3L257.9,414.3L257.9,414.3z"/>
	<path class="st2" d="M293.7,421.1v-47.9h9.2v47.9H293.7z"/>
	<path class="st2" d="M366.1,377.8l-5,5.2c-3.2-2.6-5.9-3.9-10-3.9c-6.8,0-12.6,5.2-12.6,18c0,13.1,3.9,18,11.4,18
		c2.7,0,5.3-0.5,7.6-1.9v-12.5h-7.2l-1-6.8h17.2v23.4c-4.6,2.9-10.3,4.7-16.9,4.7c-13.3,0-20.8-8.6-20.8-25.1c0-16.3,10-25,21.8-25
		C357.6,372.2,362.1,374.4,366.1,377.8z"/>
	<path class="st2" d="M384.9,380.1v13.4h15.4v6.8h-15.4v14.1h19v6.9h-28.1v-47.9h27.8l-1,6.8L384.9,380.1L384.9,380.1z"/>
	<path class="st2" d="M436.1,421.1l-16.4-38.8c0.5,4.2,1.2,10.3,1.2,19.2v19.6h-8.3v-47.9h11.6l16.7,38.8c-0.4-2.6-1.2-9.6-1.2-16.3
		v-22.5h8.3v47.9L436.1,421.1L436.1,421.1z"/>
	<path class="st2" d="M498.5,397.2c0,15.8-8.1,25.1-21,25.1c-12.9,0-21-8.9-21-25c0-15.7,8.2-25.1,21-25.1
		C490.4,372.2,498.5,381.1,498.5,397.2z M466.2,397.3c0,12.9,4.4,18,11.4,18c7.2,0,11.3-5.1,11.3-18c0-12.8-4.1-18-11.3-18
		C470.4,379.2,466.2,384.4,466.2,397.3z"/>
	<path class="st2" d="M514.7,421.1l-14.6-47.9h9.9l10.4,39.9l10.1-39.9h9.3l-14.2,47.9H514.7z"/>
	<path class="st2" d="M548.6,410l-3,11.1h-9.5l14.9-47.9h11.3l14.9,47.9h-9.7l-3-11.1H548.6L548.6,410z M556.5,380.2l-6.1,22.9h12.2
		L556.5,380.2z"/>
</g>
</svg>
